<svg width="48" height="48" viewBox="0 0 48 48" fill="none" xmlns="http://www.w3.org/2000/svg">
<g clip-path="url(#clip0_4549_21404)">
<circle cx="24" cy="24" r="24" fill="#FF003D"/>
<path d="M24.5 28.375C26.6402 28.375 28.375 26.6402 28.375 24.5C28.375 22.3598 26.6402 20.625 24.5 20.625C22.3598 20.625 20.625 22.3598 20.625 24.5C20.625 26.6402 22.3598 28.375 24.5 28.375Z" stroke="white" stroke-width="2" stroke-linecap="round" stroke-linejoin="round"/>
<path d="M33.1891 28.0234C33.0328 28.3776 32.9862 28.7704 33.0552 29.1513C33.1243 29.5322 33.3059 29.8838 33.5766 30.1605L33.647 30.231C33.8654 30.449 34.0386 30.708 34.1568 30.9932C34.275 31.2783 34.3358 31.5839 34.3358 31.8925C34.3358 32.2012 34.275 32.5068 34.1568 32.7919C34.0386 33.0769 33.8654 33.3359 33.647 33.5541C33.429 33.7724 33.1699 33.9456 32.8848 34.0638C32.5997 34.182 32.2941 34.2428 31.9855 34.2428C31.6768 34.2428 31.3712 34.182 31.0861 34.0638C30.8011 33.9456 30.5421 33.7724 30.3239 33.5541L30.2534 33.4835C29.9767 33.2129 29.6253 33.0313 29.2444 32.9622C28.8634 32.8931 28.4705 32.9398 28.1163 33.096C27.769 33.245 27.4728 33.4921 27.2642 33.8071C27.0556 34.1221 26.9436 34.4913 26.9421 34.8692V35.0688C26.9421 35.6917 26.6947 36.289 26.2543 36.7295C25.8138 37.1698 25.2164 37.4173 24.5936 37.4173C23.9707 37.4173 23.3735 37.1698 22.933 36.7295C22.4926 36.289 22.2451 35.6917 22.2451 35.0688V34.9632C22.236 34.5745 22.1102 34.1976 21.8841 33.8814C21.6579 33.5651 21.3418 33.3243 20.977 33.1901C20.6228 33.0338 20.2299 32.9872 19.849 33.0561C19.4681 33.1252 19.1166 33.3068 18.8398 33.5776L18.7694 33.648C18.5513 33.8664 18.2922 34.0396 18.0072 34.1578C17.722 34.276 17.4164 34.3368 17.1078 34.3368C16.7992 34.3368 16.4936 34.276 16.2085 34.1578C15.9234 34.0396 15.6644 33.8664 15.4463 33.648C15.2279 33.4299 15.0547 33.1708 14.9365 32.8858C14.8183 32.6007 14.7575 32.2951 14.7575 31.9865C14.7575 31.6778 14.8183 31.3722 14.9365 31.0871C15.0547 30.802 15.2279 30.5431 15.4463 30.3249L15.5167 30.2544C15.7874 29.9777 15.969 29.6262 16.0381 29.2453C16.1072 28.8644 16.0605 28.4715 15.9042 28.1173C15.7554 27.77 15.5082 27.4738 15.1932 27.2652C14.8781 27.0566 14.509 26.9446 14.1311 26.9431H13.9315C13.3086 26.9431 12.7113 26.6957 12.2709 26.2553C11.8304 25.8148 11.583 25.2174 11.583 24.5946C11.583 23.9717 11.8304 23.3744 12.2709 22.934C12.7113 22.4935 13.3086 22.246 13.9315 22.246H14.0372C14.4258 22.237 14.8028 22.1112 15.119 21.885C15.4352 21.6589 15.6761 21.3428 15.8103 20.9779C15.9666 20.6238 16.0132 20.2309 15.9442 19.85C15.8751 19.469 15.6935 19.1176 15.4228 18.8408L15.3523 18.7704C15.134 18.5522 14.9608 18.2932 14.8426 18.0081C14.7244 17.723 14.6635 17.4174 14.6635 17.1088C14.6635 16.8002 14.7244 16.4946 14.8426 16.2095C14.9608 15.9244 15.134 15.6654 15.3523 15.4472C15.5704 15.2289 15.8295 15.0557 16.1145 14.9375C16.3996 14.8193 16.7053 14.7585 17.0139 14.7585C17.3225 14.7585 17.6281 14.8193 17.9132 14.9375C18.1983 15.0557 18.4573 15.2289 18.6754 15.4472L18.7459 15.5177C19.0226 15.7884 19.3741 15.97 19.755 16.0391C20.136 16.1081 20.5288 16.0615 20.883 15.9052H20.977C21.3243 15.7564 21.6205 15.5092 21.8291 15.1942C22.0378 14.8791 22.1497 14.5099 22.1512 14.1321V13.9325C22.1512 13.3096 22.3987 12.7123 22.8391 12.2718C23.2794 11.8314 23.8768 11.584 24.4997 11.584C25.1225 11.584 25.7199 11.8314 26.1602 12.2718C26.6007 12.7123 26.8482 13.3096 26.8482 13.9325V14.0382C26.8496 14.416 26.9616 14.7852 27.1703 15.1002C27.3789 15.4152 27.6751 15.6624 28.0224 15.8113C28.3766 15.9676 28.7694 16.0142 29.1503 15.9451C29.5312 15.8761 29.8828 15.6945 30.1595 15.4238L30.23 15.3533C30.4481 15.1349 30.707 14.9617 30.9922 14.8435C31.2773 14.7254 31.5829 14.6645 31.8915 14.6645C32.2002 14.6645 32.5058 14.7254 32.7909 14.8435C33.076 14.9617 33.3349 15.1349 33.5531 15.3533C33.7714 15.5714 33.9446 15.8304 34.0628 16.1155C34.181 16.4006 34.2418 16.7062 34.2418 17.0149C34.2418 17.3235 34.181 17.6291 34.0628 17.9142C33.9446 18.1993 33.7714 18.4583 33.5531 18.6764L33.4826 18.7469C33.212 19.0236 33.0304 19.3751 32.9613 19.756C32.8922 20.1369 32.9388 20.5298 33.0951 20.884V20.9779C33.244 21.3252 33.4911 21.6214 33.8061 21.8301C34.1212 22.0387 34.4903 22.1507 34.8683 22.1521H35.0678C35.6907 22.1521 36.2881 22.3996 36.7285 22.8401C37.1689 23.2804 37.4163 23.8778 37.4163 24.5007C37.4163 25.1235 37.1689 25.7209 36.7285 26.1612C36.2881 26.6017 35.6907 26.8492 35.0678 26.8492H34.9622C34.5844 26.8506 34.2152 26.9626 33.9002 27.1713C33.5851 27.3799 33.3379 27.6761 33.1891 28.0234Z" stroke="white" stroke-width="2.5" stroke-linecap="round" stroke-linejoin="round"/>
</g>
<defs>
<clipPath id="clip0_4549_21404">
<rect width="48" height="48" fill="white"/>
</clipPath>
</defs>
</svg>
