<svg width="48" height="48" viewBox="0 0 48 48" fill="none" xmlns="http://www.w3.org/2000/svg">
<g clip-path="url(#clip0_2589_20770)">
<circle cx="24" cy="24" r="24" fill="#FF003D"/>
<path d="M34.685 37C36.6411 37 38.2283 35.4016 38.2283 33.4281V26.2859L40 24.5L38.2283 22.7141V15.5719C38.2283 13.5984 36.6427 12 34.685 12M14.315 12C12.3573 12 10.7717 13.5984 10.7717 15.5719V22.7141L9 24.5L10.7717 26.2859V33.4281C10.7717 35.4016 12.3573 37 14.315 37M17.5251 24.5H17.5406M24.5002 24.5H24.5157M31.4752 24.5H31.4907M18.3001 24.5C18.3001 24.9314 17.9531 25.2812 17.5251 25.2812C17.0971 25.2812 16.7501 24.9314 16.7501 24.5C16.7501 24.0686 17.0971 23.7188 17.5251 23.7188C17.9531 23.7188 18.3001 24.0686 18.3001 24.5ZM25.2752 24.5C25.2752 24.9314 24.9281 25.2812 24.5002 25.2812C24.0722 25.2812 23.7251 24.9314 23.7251 24.5C23.7251 24.0686 24.0722 23.7188 24.5002 23.7188C24.9281 23.7188 25.2752 24.0686 25.2752 24.5ZM32.2502 24.5C32.2502 24.9314 31.9032 25.2812 31.4752 25.2812C31.0473 25.2812 30.7002 24.9314 30.7002 24.5C30.7002 24.0686 31.0473 23.7188 31.4752 23.7188C31.9032 23.7188 32.2502 24.0686 32.2502 24.5Z" stroke="white" stroke-width="2.5" stroke-linecap="round" stroke-linejoin="round"/>
</g>
<defs>
<clipPath id="clip0_2589_20770">
<rect width="48" height="48" fill="white"/>
</clipPath>
</defs>
</svg>
